<?xml version="1.0" encoding="UTF-8"?>
<svg id="Layer_1" xmlns="http://www.w3.org/2000/svg" version="1.1" viewBox="0 0 400 400">
  <!-- Generator: Adobe Illustrator 29.6.0, SVG Export Plug-In . SVG Version: 2.1.1 Build 207)  -->
  <defs>
    <style>
      .st0 {
        fill: #fff;
      }
    </style>
  </defs>
  <path class="st0" d="M269.37,24.11v352.01c70.26-27.56,120-95.97,120-176s-49.74-148.44-120-176ZM296.37,330.57V69.65c40.02,29.49,66,76.93,66,130.46s-25.98,100.97-66,130.46Z"/>
  <path class="st0" d="M11.37,200.11c0,80.03,49.74,148.44,120,176v-185h-.03v-4.53h-45v27h18.03v116.99c-40.02-29.49-66-76.93-66-130.46s25.98-100.97,66-130.46v30h27V24.11C61.12,51.67,11.37,120.08,11.37,200.11Z"/>
  <path class="st0" d="M200.37,11.11c-17.67,0-34.78,2.43-51,6.97v28.23c16.04-5.32,33.18-8.2,51-8.2,8.16,0,16.17.61,24,1.78v125.15l-35.07,35.07,35.07,35.07v125.15c-7.83,1.17-15.84,1.78-24,1.78-17.82,0-34.96-2.89-51-8.2v28.23c16.22,4.54,33.33,6.97,51,6.97s34.78-2.43,51-6.97v-158.14l-23.89-23.89,23.89-23.89V18.08c-16.22-4.54-33.33-6.97-51-6.97Z"/>
</svg>